{"title":"The Paranormal Diaries Clophill 2013 WEBRip x264 Ac3-MiLLENiUM","uid":9168293,"size":1280319109,"categoryP":"video","categoryS":"movies","magnet":"?xt=urn:btih:f7d6e6a93fb5cb0d04fabbbb337afe3feb35e7ef&amp;dn=The+Paranormal+Diaries+Clophill+2013+WEBRip+x264+Ac3-MiLLENiUM&amp;tr=udp%3A%2F%2Ftracker.openbittorrent.com%3A80&amp;tr=udp%3A%2F%2Fopen.demonii.com%3A1337&amp;tr=udp%3A%2F%2Ftracker.coppersurfer.tk%3A6969&amp;tr=udp%3A%2F%2Fexodus.desync.com%3A6969","seeders":1,"leechers":2,"uploader":"HeroMaster","files":-1,"time":1384026049,"description":"The Paranormal Diaries Clophill 2013 WEBRip x264 Ac3-MiLLENiUM\n\n &lt;a href=&quot;\nhttp://www.imdb.com/title/tt1852137/&quot; rel=&quot;nofollow&quot; target=&quot;_NEW&quot;&gt;\nhttp://www.imdb.com/title/tt1852137/&lt;/a&gt;\n\n\nSource                                   : WEB [thanks]\nFormat                                   : Matroska\nFormat version                           : Version 4 / Version 2\nFile size                                : 1.17 GiB\nDuration                                 : 1h 28mn\nOverall bit rate mode                    : Variable\nOverall bit rate                         : 1 896 Kbps\nEncoded date                             : UTC 2013-10-22 17:26:55\nWriting application                      : mkvmerge v6.5.0 ('Isn't she lovely')  \n                         \n\nVideo\nID                                       : 2\nFormat                                   : AVC\nFormat/Info                              : Advanced Video Codec\nFormat profile                           : &lt;a class=&quot;__cf_email__&quot; href=&quot;/cdn-cgi/l/email-protection&quot; data-cfemail=&quot;5f173638371f136b716e&quot;&gt;[email&amp;#160;protected]&lt;/a&gt;&lt;script cf-hash='f9e31' type=&quot;text/javascript&quot;&gt;\n/* &lt;![CDATA[ */!function(){try{var t=&quot;currentScript&quot;in document?document.currentScript:function(){for(var t=document.getElementsByTagName(&quot;script&quot;),e=t.length;e--;)if(t[e].getAttribute(&quot;cf-hash&quot;))return t[e]}();if(t&amp;&amp;t.previousSibling){var e,r,n,i,c=t.previousSibling,a=c.getAttribute(&quot;data-cfemail&quot;);if(a){for(e=&quot;&quot;,r=parseInt(a.substr(0,2),16),n=2;a.length-n;n+=2)i=parseInt(a.substr(n,2),16)^r,e+=String.fromCharCode(i);e=document.createTextNode(e),c.parentNode.replaceChild(e,c)}}}catch(u){}}();/* ]]&gt; */&lt;/script&gt;\nFormat settings, CABAC                   : Yes\nFormat settings, ReFrames                : 3 frames\nCodec ID                                 : V_MPEG4/ISO/AVC\nDuration                                 : 1h 28mn\nBit rate mode                            : Variable\nBit rate                                 : 1 510 Kbps\nMaximum bit rate                         : 40.0 Mbps\nWidth                                    : 720 pixels\nHeight                                   : 304 pixels\nDisplay aspect ratio                     : 2.35:1\nFrame rate                               : 25.000 fps\nColor space                              : YUV\nChroma subsampling                       : 4:2:0\nBit depth                                : 8 bits\nScan type                                : Progressive\nBits/(Pixel*Frame)                       : 0.276\nStream size                              : 932 MiB (78%)\nWriting library                          : x264 core 138 r2358 9e941d1\nLanguage                                 : English\nDefault                                  : Yes\nForced                                   : No\n\n\nAudio\nID                                       : 1\nFormat                                   : AC-3\nFormat/Info                              : Audio Coding 3\nMode extension                           : CM (complete main)\nCodec ID                                 : A_AC3\nDuration                                 : 1h 28mn\nBit rate mode                            : Constant\nBit rate                                 : 384 Kbps\nChannel(s)                               : 2 channels\nChannel positions                        : Front: L R\nSampling rate                            : 44.1 KHz\nBit depth                                : 16 bits\nCompression mode                         : Lossy\nStream size                              : 243 MiB (20%)\nDefault                                  : Yes\nForced                                   : No\n\n\nPoster:\n\n &lt;a href=&quot;\nhttp://i.imgur.com/UXchAHt.jpg&quot; rel=&quot;nofollow&quot; target=&quot;_NEW&quot;&gt;\nhttp://i.imgur.com/UXchAHt.jpg&lt;/a&gt;\n\n\nScreenshots:\n\n &lt;a href=&quot;\nhttp://i.imgur.com/e8lcykt.png&quot; rel=&quot;nofollow&quot; target=&quot;_NEW&quot;&gt;\nhttp://i.imgur.com/e8lcykt.png&lt;/a&gt;\n\n &lt;a href=&quot;\nhttp://i.imgur.com/oaTSyKt.png&quot; rel=&quot;nofollow&quot; target=&quot;_NEW&quot;&gt;\nhttp://i.imgur.com/oaTSyKt.png&lt;/a&gt;\n\n &lt;a href=&quot;\nhttp://i.imgur.com/AjDVLw1.png&quot; rel=&quot;nofollow&quot; target=&quot;_NEW&quot;&gt;\nhttp://i.imgur.com/AjDVLw1.png&lt;/a&gt;\n\n\nSEED AND ENJOY!","torrent":{"xt":"urn:btih:f7d6e6a93fb5cb0d04fabbbb337afe3feb35e7ef","amp;dn":"The+Paranormal+Diaries+Clophill+2013+WEBRip+x264+Ac3-MiLLENiUM","amp;tr":["udp%3A%2F%2Ftracker.openbittorrent.com%3A80","udp%3A%2F%2Fopen.demonii.com%3A1337","udp%3A%2F%2Ftracker.coppersurfer.tk%3A6969","udp%3A%2F%2Fexodus.desync.com%3A6969"],"infoHash":"f7d6e6a93fb5cb0d04fabbbb337afe3feb35e7ef","infoHashBuffer":{"type":"Buffer","data":[247,214,230,169,63,181,203,13,4,250,187,187,51,122,254,63,235,53,231,239]},"announce":[],"urlList":[]}}